<?xml version="1.0" standalone="no"?>
<!DOCTYPE svg PUBLIC "-//W3C//DTD SVG 20010904//EN"
 "http://www.w3.org/TR/2001/REC-SVG-20010904/DTD/svg10.dtd">
<svg version="1.0" xmlns="http://www.w3.org/2000/svg"
 width="512.000000pt" height="512.000000pt" viewBox="0 0 512.000000 512.000000"
 preserveAspectRatio="xMidYMid meet">

<g transform="translate(0.000000,512.000000) scale(0.100000,-0.100000)"
 stroke="2">
<path fill="currentColor" d="M2694 4715 c-27 -14 -64 -42 -83 -62 -18 -19 -45 -41 -59 -49 -22
-11 -27 -11 -38 4 -11 16 -14 15 -33 -2 -21 -19 -22 -19 -44 2 -13 12 -31 22
-40 22 -10 0 -43 11 -75 24 -43 18 -92 26 -202 35 -107 9 -147 15 -153 26 -11
20 -74 19 -134 -1 -110 -37 -137 -57 -265 -186 -69 -70 -131 -128 -137 -128
-6 0 -13 -11 -17 -24 -3 -15 -16 -27 -37 -32 -27 -8 -35 -19 -64 -94 -18 -47
-46 -112 -62 -145 -33 -69 -81 -189 -81 -203 0 -22 -34 -118 -45 -127 -16 -14
-45 -71 -45 -89 0 -9 6 -13 13 -10 10 3 4 -38 -19 -154 -17 -87 -35 -210 -40
-273 -5 -75 -10 -104 -14 -84 -14 64 -22 -195 -15 -458 4 -150 8 -333 10 -407
2 -74 5 -164 9 -200 3 -36 8 -117 11 -180 8 -162 22 -283 44 -370 29 -115 34
-225 15 -301 -20 -81 -52 -139 -76 -139 -11 0 -18 -7 -18 -19 0 -15 10 -19 51
-24 28 -4 62 -13 75 -22 13 -8 32 -15 43 -15 14 0 18 -5 14 -21 -3 -11 -12
-23 -19 -26 -18 -7 -18 -33 0 -33 30 0 45 13 56 46 13 38 -2 36 227 38 109 1
102 -2 143 58 3 4 22 3 42 -2 35 -10 36 -11 27 -43 -5 -17 -14 -65 -18 -105
-10 -81 -36 -122 -77 -122 -21 0 -144 -92 -144 -108 0 -4 -10 -13 -21 -21 -19
-11 -21 -11 -16 3 9 23 -26 21 -48 -4 -10 -11 -31 -20 -47 -20 -15 0 -28 -3
-28 -8 0 -4 -10 -12 -22 -17 -19 -9 -23 -17 -22 -56 1 -25 12 -69 24 -98 38
-87 74 -93 145 -21 27 27 51 48 53 46 2 -3 22 2 44 10 61 21 86 18 167 -23 52
-27 81 -49 99 -76 15 -22 33 -37 46 -38 37 -1 55 -7 83 -26 35 -24 107 -53
133 -53 12 0 17 -5 14 -14 -9 -23 14 -28 28 -6 7 11 31 31 53 44 22 13 51 36
64 50 14 14 30 26 38 26 7 0 13 5 13 10 0 6 15 10 34 10 34 0 35 1 29 34 -4
28 -1 37 18 49 41 26 101 28 175 8 61 -17 95 -29 196 -69 15 -6 37 -25 49 -41
14 -19 30 -30 44 -29 12 1 34 -7 51 -18 16 -12 56 -32 89 -45 33 -13 61 -27
63 -30 1 -3 27 -4 57 -1 40 3 55 1 55 -8 0 -9 5 -8 18 3 10 10 24 17 32 17 7
0 32 10 56 22 41 20 69 53 103 120 8 16 16 26 19 24 2 -3 26 13 54 34 43 32
60 39 121 45 48 4 66 9 56 16 -9 5 28 8 99 6 91 -2 114 1 122 13 5 8 10 18 10
22 0 17 -56 41 -127 55 -60 11 -89 23 -132 54 -45 33 -55 45 -53 65 2 13 0 24
-5 24 -4 0 -9 33 -11 73 -2 42 -8 76 -16 82 -10 8 -46 85 -46 99 0 2 26 -3 58
-10 78 -19 186 -18 205 1 13 12 21 11 66 -11 28 -14 83 -30 122 -36 70 -11 71
-10 94 16 19 22 27 25 46 17 13 -5 20 -10 14 -10 -5 -1 1 -8 14 -17 16 -11 26
-13 33 -6 6 6 17 8 24 5 21 -8 17 18 -7 43 -21 22 -22 32 -20 215 1 106 4 195
6 199 7 12 43 460 65 800 11 179 22 351 24 383 5 76 -10 64 -20 -15 -6 -55 -8
-59 -14 -32 -4 17 -8 70 -9 118 -1 79 -8 143 -27 251 -7 36 -6 39 8 27 40 -33
33 42 -22 233 -21 72 -41 150 -45 175 -12 75 -118 407 -200 625 -14 39 -31 86
-37 105 -5 19 -27 58 -47 85 -20 28 -56 84 -80 126 -24 42 -60 98 -80 125 -33
44 -41 49 -76 49 -38 0 -40 2 -68 60 -37 76 -48 89 -97 105 -32 10 -42 11 -55
0 -12 -10 -21 -7 -52 24 -36 35 -78 47 -85 25 -2 -7 -12 -7 -31 0 -16 6 -99
11 -186 11 -150 0 -161 -1 -207 -25z"/>
</g>
</svg>
